/* XPM */
static char *c[] = {
/* columns rows colors chars-per-pixel */
"22 22 58 1 ",
"  c #8D6587",
". c #8E6587",
"X c #916689",
"o c #946788",
"O c #95698C",
"+ c #95698D",
"@ c #95698F",
"# c #956A8F",
"$ c #976A8E",
"% c #966A8F",
"& c #976A8F",
"* c #986A8D",
"= c #996A8D",
"- c #986A8E",
"; c #986A8F",
": c #996B8F",
"> c #9E6C8E",
", c #976A90",
"< c #956B94",
"1 c #966C95",
"2 c #9E6C90",
"3 c #9F6D90",
"4 c #9C6D93",
"5 c #9A6D96",
"6 c #9D6E97",
"7 c #9F7099",
"8 c #A06D90",
"9 c #A06E91",
"0 c #A26E93",
"q c #A26F93",
"w c #A16F95",
"e c #A37095",
"r c #A47096",
"t c #A1709A",
"y c #A3719A",
"u c #A3729B",
"i c #A47198",
"p c #A47199",
"a c #A4729B",
"s c #A7729A",
"d c #A7739A",
"f c #A6729B",
"g c #A6739B",
"h c #A7739B",
"j c #A5739C",
"k c #A5739D",
"l c #A6739C",
"z c #A7739C",
"x c #A7739D",
"c c #A7749E",
"v c #A9749C",
"b c #A8749D",
"n c #A8749E",
"m c #A9749E",
"M c #A9759F",
"N c #AA759E",
"B c #AA759F",
"V c None",
/* pixels */
"VVVVVVVVVVVVVVVVVVVVVV",
"VVVVVVVVVVV:VVVVVVVVVV",
"VVVVVVVVV$VV%VVVVVVVVV",
"VVVVVVV%VVVVVV;VVVVVVV",
"VVVVVV-VVVVVVVV@-VVVVV",
"VVVV;VVV6lmmbiVVV,VVVV",
"VVV+VVV7BNzxnBdVVVXVVV",
"VVVOVV5Bh2VVVtBqVV VVV",
"VVVOVVkvVVVVVV4VVV VVV",
"VVVOVVMeVVVVVVVVVV VVV",
"VVVOV1B8VVVVVVVVVV VVV",
"VVVOV<M0VVVVVVVVVV VVV",
"VVVOVVcsVVVVVVVVVV VVV",
"VVVOVV7BrVVVV5l9VV VVV",
"VVVOVVVjBgpyaMm>VV.VVV",
"VVVV=VVVuMBBBz3VVVoVVV",
"VVVVV&VVVVyfwVVV&VVVVV",
"VVVVVVV-VVVVVV#*VVVVVV",
"VVVVVVVV%VVVV;VVVVVVVV",
"VVVVVVVVVV&;VVVVVVVVVV",
"VVVVVVVVVVVVVVVVVVVVVV",
"VVVVVVVVVVVVVVVVVVVVVV"
};
