/* XPM */
static char *clojure[] = {
/* columns rows colors chars-per-pixel */
"22 22 237 2 ",
"   c #5EAF2C",
".  c #60AF2D",
"X  c #60B02E",
"o  c #60B02F",
"O  c #61B02F",
"+  c #61B030",
"@  c #62B131",
"#  c #63B131",
"$  c #63B132",
"%  c #64B234",
"&  c #65B234",
"*  c #65B235",
"=  c #66B235",
"-  c #66B336",
";  c #68B338",
":  c #69B43A",
">  c #6AB43B",
",  c #6AB53B",
"<  c #6BB53C",
"1  c #6CB63E",
"2  c #78BC4E",
"3  c #79BC50",
"4  c #7CBE53",
"5  c #7DBE54",
"6  c #7FBF56",
"7  c #7FBF57",
"8  c #8DDB41",
"9  c #8EDB42",
"0  c #8FDC44",
"q  c #90DC45",
"w  c #90DC46",
"e  c #91DC47",
"r  c #92DC49",
"t  c #94DD4C",
"y  c #95DD4D",
"u  c #95DD4E",
"i  c #81C05A",
"p  c #82C15C",
"a  c #85C25F",
"s  c #9ADF57",
"d  c #9BDF58",
"f  c #9FE05E",
"g  c #9FE15F",
"h  c #86C360",
"j  c #87C361",
"k  c #87C362",
"l  c #8AC465",
"z  c #8EC66B",
"x  c #93C971",
"c  c #94C972",
"v  c #94C973",
"b  c #95CA74",
"n  c #97CB76",
"m  c #98CB79",
"M  c #9ACC7A",
"N  c #A1E161",
"B  c #ACE574",
"V  c #AEE578",
"C  c #B3E77F",
"Z  c #537DD7",
"A  c #547ED7",
"S  c #557FD7",
"D  c #567FD7",
"F  c #567FD8",
"G  c #5680D8",
"H  c #5780D8",
"J  c #5781D8",
"K  c #5881D8",
"L  c #5982D8",
"P  c #5A83D8",
"I  c #5A83D9",
"U  c #5B83D9",
"Y  c #5C84D9",
"T  c #5F86DA",
"R  c #5F87DA",
"E  c #6087DA",
"W  c #6187DA",
"Q  c #6289DA",
"!  c #668CDB",
"~  c #7496DF",
"^  c #7798DF",
"/  c #7899DF",
"(  c #7B9BE0",
")  c #7C9CE0",
"_  c #7F9EE1",
"`  c #A0D083",
"'  c #A1D084",
"]  c #A4D187",
"[  c #A8D48D",
"{  c #AED694",
"}  c #B1D898",
"|  c #B1D899",
" . c #B4D99C",
".. c #B3E780",
"X. c #B8E888",
"o. c #B8E988",
"O. c #BBE98D",
"+. c #BFEB95",
"@. c #B9DCA3",
"#. c #C2EC97",
"$. c #C4ED9B",
"%. c #C8EE9F",
"&. c #C9E4B8",
"*. c #CAE4B9",
"=. c #CBE5BA",
"-. c #CCE5BC",
";. c #CCE6BC",
":. c #CDE6BD",
">. c #D3F1B6",
",. c #809FE1",
"<. c #82A1E2",
"1. c #83A1E2",
"2. c #83A2E2",
"3. c #85A3E3",
"4. c #87A4E3",
"5. c #8AA6E3",
"6. c #8BA7E4",
"7. c #8CA8E4",
"8. c #90ABE5",
"9. c #9CB4E8",
"0. c #9FB6E8",
"q. c #8EB3FE",
"w. c #8FB3FE",
"e. c #90B4FE",
"r. c #91B5FE",
"t. c #93B6FE",
"y. c #94B7FE",
"u. c #99BAFE",
"i. c #9DBDFE",
"p. c #9EBEFE",
"a. c #A0B7E9",
"s. c #A1B8E9",
"d. c #A3B9EA",
"f. c #A5BBEA",
"g. c #A8BDEB",
"h. c #AABFEB",
"j. c #A1BFFF",
"k. c #ADC1EC",
"l. c #B2C5EE",
"z. c #B4C6EF",
"x. c #A2C0FF",
"c. c #AAC6FE",
"v. c #AAC6FF",
"b. c #ADC8FF",
"n. c #BECEF0",
"m. c #B5CDFF",
"M. c #B9CFFF",
"N. c #BFD4FF",
"B. c #D0E8C1",
"V. c #D1E8C3",
"C. c #D2E9C4",
"Z. c #D4EAC6",
"A. c #D6EBCA",
"S. c #DAF3C1",
"D. c #DCF4C3",
"F. c #DFF4C9",
"G. c #DFF5CA",
"H. c #DDEED2",
"J. c #DEEFD3",
"K. c #E0F5CC",
"L. c #E0F5CD",
"P. c #E3F6D0",
"I. c #E3F7D0",
"U. c #E7F8D4",
"Y. c #E5F5D8",
"T. c #E6F5DA",
"R. c #E7F6DA",
"E. c #E7F4DE",
"W. c #E8F6DC",
"Q. c #E9F6DE",
"!. c #EBF8DE",
"~. c #C8D5F2",
"^. c #CAD7F3",
"/. c #CBD8F3",
"(. c #CCD8F3",
"). c #CDD9F3",
"_. c #C1D6FF",
"`. c #C2D6FF",
"'. c #C8D9FF",
"]. c #D0DBF4",
"[. c #D1DDF5",
"{. c #D3DEF5",
"}. c #D2E2FA",
"|. c #DAE3F8",
" X c #DCE7FF",
".X c #DFE9FE",
"XX c #E6F3E7",
"oX c #EFF8E6",
"OX c #E4F2E8",
"+X c #EEF7E9",
"@X c #EFF7EA",
"#X c #EFF9EA",
"$X c #F0F8E8",
"%X c #F0F8EC",
"&X c #F1F8EC",
"*X c #F1F8ED",
"=X c #F2F9EE",
"-X c #F4FAEF",
";X c #F6FEEC",
":X c #F5FCEE",
">X c #E3EAF9",
",X c #E5EBFA",
"<X c #E0EAFE",
"1X c #E2EBFF",
"2X c #E4ECFC",
"3X c #E5ECFC",
"4X c #E5EDFC",
"5X c #E7EDFC",
"6X c #E8EFFD",
"7X c #EEF2FB",
"8X c #F5FAF2",
"9X c #F7FBF4",
"0X c #FAFDF5",
"qX c #F8FCF6",
"wX c #FBFEF7",
"eX c #F0F6FB",
"rX c #F1F4FC",
"tX c #F2F5FC",
"yX c #F3F6FC",
"uX c #F5F8FD",
"iX c #F7F9FD",
"pX c #F6F8FF",
"aX c #F7F8FF",
"sX c #FBFDFA",
"dX c #FCFDFB",
"fX c #FCFEFB",
"gX c #F8FAFD",
"hX c #F9FAFE",
"jX c #FDFEFC",
"kX c #FDFEFD",
"lX c #FCFDFE",
"zX c #FCFDFF",
"xX c #FDFEFF",
"cX c #FEFFFE",
"vX c #FEFEFF",
"bX c white",
"nX c None",
/* pixels */
"nXnXnXnXnXnXnXnXbXiXrXrXiXbXnXnXnXnXnXnXnXnX",
"nXnXnXnXnXbXyX/.a.2.^ ^ 1.0.^.tXbXnXnXnXnXnX",
"nXnXnXnXxX).<.Y S D G G D S Y ,./.lXnXnXnXnX",
"nXnXnXiXk.R Z S H G S S G K K D E k.gXnXnXnX",
"nXnXvX(.d.l.h.4.! ^ 7.7./ T F K H I k.lXnXnX",
"nXbXxXaXkX0XwXhX>X5X<X<X2X].5.L K H E ^.bXnX",
"nXbXfXB.M h &.:X;X1Xu.y.p.`.6Xs.L K D _ rXnX",
"nXjX .>   z T.V B #Xm.q.w.q.b.6X6.G K U ~.nX",
"bXV., + : C.$.0 q %. Xt.e.e.q._.[.E J S 9.bX",
"sXn X + i Y.g q q N XXx.w.e.w.i.3X( F D ,.uX",
"&X6 + o v L.u e w s !.M.q.e.e.t..X8.S G ~ 7X",
"&X7 + o b K.y e q O.U.}.r.e.e.t..X8.S G ~ 7X",
"9Xl O + p Y.f 0 d S.C OXj.w.w.i.2X) F S 3.iX",
"bX] o # , Z.#.9 +.>.t D.'.w.q.N.{.W G P n.bX",
"nX;.- $ + x W.C P.X.8 o.eXv.c.4X6.A Q f.gXnX",
"nX=Xk O $ % [ oXwX..r s I.pXpX,Xg.z.|.zXbXnX",
"nXbX:., @ # & c A.R.G.F.Q.H.J.+X-X$XE.sXbXnX",
"nXnXfX| * @ $ + < a m m a 1 1 2 5 3 @.dXnXnX",
"nXnXnXqX} > O $ @ O o o O @ @ . ; { 9XnXnXnX",
"nXnXnXnXdX-.h = o O + + O o * a =.dXnXnXnXnX",
"nXnXnXnXnXbX*X*.' k 4 4 j ` &.%XbXnXnXnXnXnX",
"nXnXnXnXnXnXnXnXcX8X@X@X8XcXnXnXnXnXnXnXnXnX"
};
