/* XPM */
static char *conf[] = {
/* columns rows colors chars-per-pixel */
"22 22 114 2 ",
"   c #6B8C67",
".  c #689160",
"X  c #6E9664",
"o  c #6F9664",
"O  c #639F63",
"+  c #6B9A65",
"@  c #699966",
"#  c #6D9864",
"$  c #6F9A65",
"%  c #6C9A66",
"&  c #6B9D64",
"*  c #6A9E64",
"=  c #6B9D66",
"-  c #6B9D67",
";  c #6C9D66",
":  c #6C9C67",
">  c #63926B",
",  c #669369",
"<  c #669469",
"1  c #66986A",
"2  c #67986A",
"3  c #679A6A",
"4  c #679B6A",
"5  c #669C6A",
"6  c #679F6A",
"7  c #679F6B",
"8  c #639B6E",
"9  c #649A6C",
"0  c #659A6C",
"q  c #619D6D",
"w  c #639E6E",
"e  c #659E6D",
"r  c #649E6E",
"t  c #699A68",
"y  c #689D68",
"u  c #699D68",
"i  c #6B9D68",
"p  c #6A9D69",
"a  c #6B9E68",
"s  c #6A9F68",
"d  c #6A9E69",
"f  c #6A9C6B",
"g  c #6A9F6A",
"h  c #6D9C68",
"j  c #6D9F68",
"k  c #6C9F69",
"l  c #699F6C",
"z  c #719A62",
"x  c #749B62",
"c  c #719E63",
"v  c #749E62",
"b  c #709966",
"n  c #749867",
"m  c #719D64",
"M  c #719E64",
"N  c #67A766",
"B  c #6AA065",
"V  c #6BA165",
"C  c #69A265",
"Z  c #69A167",
"A  c #6BA166",
"S  c #69A366",
"D  c #6EA364",
"F  c #6FA265",
"G  c #6DA267",
"H  c #68A665",
"J  c #69A566",
"K  c #68A666",
"L  c #69A666",
"P  c #68A766",
"I  c #69A667",
"U  c #69A767",
"Y  c #6AA667",
"T  c #6BA667",
"R  c #66A966",
"E  c #67A966",
"W  c #67A867",
"Q  c #66A967",
"!  c #67A967",
"~  c #66AA66",
"^  c #67AA66",
"/  c #66AB66",
"(  c #69A865",
")  c #68A966",
"_  c #68AA66",
"`  c #67A168",
"'  c #66A268",
"]  c #67A368",
"[  c #67A269",
"{  c #67A369",
"}  c #66A16B",
"|  c #67A16B",
" . c #65A36B",
".. c #67A468",
"X. c #66A568",
"o. c #67A568",
"O. c #66A569",
"+. c #67A768",
"@. c #67A769",
"#. c #65A26C",
"$. c #66A26C",
"%. c #68A368",
"&. c #6BA268",
"*. c #69A06B",
"=. c #68A36B",
"-. c #6AA36A",
";. c #6DA068",
":. c #68A568",
">. c #6AA468",
",. c #69A669",
"<. c #6AA768",
"1. c #65A868",
"2. c #67A869",
"3. c None",
/* pixels */
"3.3.3.3.3.3.3.3.3.3.3.3.3.3.3.3.3.3.3.3.3.3.",
"3.3.3.3.3.3.3.3.3.3.3.3.3.3.3.3.3.3.3.3.3.3.",
"3.3.3.3.3.3.3.3.3.3.3.3.3.3.h M 3.k x 3.3.3.",
"3.3.3.3.3.3.3.3.3.3.3.3.3.3.g _ T ^ c 3.3.3.",
"3.3.3.3.3.3.3.O . 3.3.3.3.3.=.F 3.-.G 3.3.3.",
"3.3.3.3.3.3.< / & 3.3.3.3.2.( 3.3.3.W U 3.3.",
"3.3.3.6 J p ..~ P a { C   *.,.z 3.f Y ;.3.3.",
"3.3.3.+.~ ~ ~ R ~ / ~ E b 3.l ) <.! m 3.3.3.",
"3.3.3.2 ~ K ; 3.5 ] ~ V 3.3.j D n >.v 3.3.3.",
"3.3.3 ' ^ o 3.3.3.3.+.K % 3.3.3.3.3.3.3.3.3.",
"3.0 ~ ~ L 3.3.3.3.3.| / ~ A 3.3.3.3.3.3.3.3.",
"3.9 R ~ L 3.3.3.3.3.} / ~ V 3.3.3.3.3.3.3.3.",
"3.3.3.` ^ X 3.3.3.3.+.H + 3.3.3.3.3.3.3.3.3.",
"3.3.3.1 ~ H = 3.4 ] ~ B 3.3.q %.>  .y 3.3.3.",
"3.3.3.+.~ ~ ~ R ~ / ~ ^ $ 3.r ! o.Q : 3.3.3.",
"3.3.3.*.J d ..~ N i [ S   7 O.@ 3.8 :.s 3.3.",
"3.3.3.3.3.3., / * 3.3.3.3.@.N 3.3.3.1.I 3.3.",
"3.3.3.3.3.3.3.! # 3.3.3.3.3.$.Z 3.#.&.3.3.3.",
"3.3.3.3.3.3.3.3.3.3.3.3.3.3.w R X.Q - 3.3.3.",
"3.3.3.3.3.3.3.3.3.3.3.3.3.3.8 u 3.e t 3.3.3.",
"3.3.3.3.3.3.3.3.3.3.3.3.3.3.3.3.3.3.3.3.3.3.",
"3.3.3.3.3.3.3.3.3.3.3.3.3.3.3.3.3.3.3.3.3.3."
};
