/* XPM */
static char *cpp[] = {
/* columns rows colors chars-per-pixel */
"22 22 2 1 ",
"  c #FFDB1A",
". c None",
/* pixels */
"......................",
"......................",
"......................",
".....  ........  .....",
"....    .......  .....",
"...  ..  ......  .....",
"...  ...  ..        ..",
"..  ....  ..        ..",
"..  ..... .....  .....",
"..  ...........  .....",
"..  ...........  .....",
"..  ...........  .....",
"..  ...........  .....",
"..  ..... .....  .....",
"..  ....  ..        ..",
"...  ...  ..        ..",
"...  ..  ......  .....",
"....    .......  .....",
".....  ........  .....",
"......................",
"......................",
"......................"
};
