/* XPM */
static char * css_xpm[] = {
"22 21 76 1",
" 	c None",
".	c #DABD44",
"+	c #FAD046",
"@	c #FBD046",
"#	c #FBD146",
"$	c #F6CB45",
"%	c #DEC145",
"&	c #FED346",
"*	c #FFD446",
"=	c #FFD546",
"-	c #F9CD45",
";	c #FCD246",
">	c #FED446",
",	c #FDD346",
"'	c #F8CB45",
")	c #FBD246",
"!	c #F0C544",
"~	c #DDBB43",
"{	c #F6CE45",
"]	c #F5C944",
"^	c #F8D046",
"/	c #EFC243",
"(	c #F3CD45",
"_	c #F4C744",
":	c #F6CF46",
"<	c #EAC244",
"[	c #ECC544",
"}	c #F1C443",
"|	c #F4CE46",
"1	c #F0C343",
"2	c #F9D146",
"3	c #EEC143",
"4	c #F0CB45",
"5	c #F8CC45",
"6	c #ECBF42",
"7	c #EECB45",
"8	c #E9BB42",
"9	c #E9C745",
"0	c #F1C544",
"a	c #DBBE44",
"b	c #FDD246",
"c	c #E6C545",
"d	c #F9CE45",
"e	c #F9CF45",
"f	c #FCD145",
"g	c #E0C244",
"h	c #E2C345",
"i	c #FDD146",
"j	c #E4C445",
"k	c #FCD045",
"l	c #E8C745",
"m	c #FBCF45",
"n	c #DCC044",
"o	c #FED246",
"p	c #F1CA45",
"q	c #F7CE45",
"r	c #F7CD45",
"s	c #EFC544",
"t	c #EAC845",
"u	c #FACE45",
"v	c #EABC42",
"w	c #EFCA45",
"x	c #FBD045",
"y	c #F4CA45",
"z	c #ECC745",
"A	c #F3CC45",
"B	c #F6CA44",
"C	c #FCD146",
"D	c #F8CF45",
"E	c #F4C844",
"F	c #F4CD45",
"G	c #F9D046",
"H	c #F4C945",
"I	c #EFC945",
"J	c #F6CC45",
"K	c #EFC644",
"                      ",
"  .+@@@@@@@@@@@@@#$   ",
"  %&*************=-   ",
"   ;*>,,,,,,,,,&*='   ",
"   )*!         ~{=]   ",
"   ^*/          (=_   ",
"   :=$<[[[[[[   :=}   ",
"   |*********1  2*3   ",
"   4***&5&&&&   )*6   ",
"   7***&        ,&8   ",
"   9****0      a&b    ",
"   c*&de^&&&f  g*f    ",
"   h*i  j**=k  l*m    ",
"   n&o   pqrs  t=u    ",
"    ,&v        w=5    ",
"    )*xy     zA;=B    ",
"    2***&CrD;***=E    ",
"    F***********&1    ",
"     zAG,***>;dH      ",
"         IqJK         ",
"                      "};
