/* XPM */
static char *dir_open[] = {
/* columns rows colors chars-per-pixel */
"22 22 18 1 ",
"  c #001B3D",
". c #021C3E",
"X c #021D3E",
"o c #031D3E",
"O c #031D3F",
"+ c #001E44",
"@ c #092A56",
"# c #0A2A56",
"$ c #708EB4",
"% c #5284C1",
"& c #5386C1",
"* c #5285C2",
"= c #6BA4E7",
"- c #C9CACD",
"; c #CACBCE",
": c #FEFEFE",
"> c white",
", c None",
/* pixels */
",,,,,,,,,,,,,,,,,,,,,,",
",,,,oOOOo,,,,,,,,,,,,,",
",,,X->>>;o,,,,,,,,,,,,",
",,.O:>>>>OOOOOOOOOo,,,",
",,O->>>>>>>>>>>>>>;o,,",
",,O:>>>>>>>>>>>>>>>O,,",
",,O:>>>>>>>>>>>>>>>O,,",
", @$$$$$$$$$$$$$$$$#,,",
",&==================*,",
"+====================+",
"+====================+",
"+====================+",
"+====================+",
"+====================+",
"+====================+",
"+====================+",
"+====================+",
"+====================+",
",*==================%,",
",,++++++++++++++++++,,",
",,,,,,,,,,,,,,,,,,,,,,",
",,,,,,,,,,,,,,,,,,,,,,"
};
