/* XPM */
static char *emacs[] = {
/* columns rows colors chars-per-pixel */
"22 22 121 2 ",
"   c #4F266F",
".  c #5B2A7C",
"X  c #58337F",
"o  c #5E2A80",
"O  c #5C3685",
"+  c #662D89",
"@  c #633289",
"#  c #603D8D",
"$  c #6C3192",
"%  c #663F92",
"&  c #6A3993",
"*  c #6E3E98",
"=  c #703496",
"-  c #76349C",
";  c #753B9F",
":  c #793DA5",
">  c #644292",
",  c #664798",
"<  c #6B4399",
"1  c #674899",
"2  c #6A4D9C",
"3  c #6B519F",
"4  c #7B4EAD",
"5  c #6E54A3",
"6  c #7158A7",
"7  c #7553A9",
"8  c #745EAC",
"9  c #795AAE",
"0  c #7E55B4",
"q  c #7E5AB6",
"w  c #7461AD",
"e  c #7766B1",
"r  c #7D61B5",
"t  c #7B6AB6",
"y  c #7F64BA",
"u  c #7F6CBB",
"i  c #7D73BB",
"p  c #813BAB",
"a  c #863BB0",
"s  c #883DB3",
"d  c #8F3FBD",
"f  c #8747B6",
"g  c #844EB7",
"h  c #8D44BC",
"j  c #874DB9",
"k  c #8A4ABA",
"l  c #904CBE",
"z  c #8251B6",
"x  c #815DB7",
"c  c #8A52BA",
"v  c #805FB8",
"b  c #8E5EBD",
"n  c #8163BA",
"m  c #8D65BC",
"M  c #846BBC",
"N  c #8C6BBE",
"B  c #9067BE",
"V  c #916CBF",
"C  c #8272BF",
"Z  c #9270BF",
"A  c #9347C1",
"S  c #9459C0",
"D  c #9F5FC6",
"F  c #9965C3",
"G  c #966BC1",
"H  c #996AC3",
"J  c #8376C1",
"K  c #8B75C1",
"L  c #827CC3",
"P  c #8D7CC3",
"I  c #9275C2",
"U  c #937DC5",
"Y  c #9C7DC6",
"T  c #AC7FCE",
"R  c #B07FD1",
"E  c #8381C5",
"W  c #8982C6",
"Q  c #8C87C8",
"!  c #8E8AC9",
"~  c #9382C6",
"^  c #9D86C9",
"/  c #958ACA",
"(  c #9D8BCB",
")  c #9A93CE",
"_  c #9F9BD1",
"`  c #A58DCC",
"'  c #AD8FCF",
"]  c #A394CF",
"[  c #AA9DD3",
"{  c #BB95D7",
"}  c #B799D5",
"|  c #BB9BD8",
" . c #ABA3D5",
".. c #B3A2D6",
"X. c #B8A2D5",
"o. c #B0A9D7",
"O. c #B2ABD9",
"+. c #BDAFDB",
"@. c #BCB3DC",
"#. c #C3AFDC",
"$. c #C4B4DE",
"%. c #C3B9DF",
"&. c #C4BDE1",
"*. c #CDBAE2",
"=. c #D1BCE4",
"-. c #CBC5E5",
";. c #D3C3E5",
":. c #D4C8E7",
">. c #D5CDE9",
",. c #DCCBEA",
"<. c #D6D1EA",
"1. c #DCD3EC",
"2. c #E1DBEF",
"3. c #E3DEF1",
"4. c #EAE5F4",
"5. c #EEEAF6",
"6. c #F2EEF8",
"7. c #F5F3F9",
"8. c #F8F7FB",
"9. c #FDFDFE",
"0. c None",
/* pixels */
"0.0.0.0.0.0.0.0.0.0.0.0.0.0.0.0.0.0.0.0.0.0.",
"0.0.0.0.0.0.0.1 6 w t w w 3 > 0.0.0.0.0.0.0.",
"0.0.0.0.0.1 w i E E L L L L t 5 > 0.0.0.0.0.",
"0.0.0.0.5 i E E E E Q )  .O.] J 8 > 0.0.0.0.",
"0.0.0.5 i E E L L E ) o.-.7.3.] u 8 > 0.0.0.",
"0.0.1 t E E ! _  .o.@.-.<.8.7...M n 7 O 0.0.",
"0.0.w E E Q &.4.5.4.1.<.>.:.@.U n n n 1 0.0.",
"0., i E L W -.9.8.@.( ~ P K M y n v v 7 X 0.",
"0.5 L L L J / -.6.-.( M y y y n r v x 0 O 0.",
"0.6 L L J J i P  .<.2.&.( M n v q q 0 0 > 0.",
"0.w L J C C P ] @.>.5.7.2...M q q q z z < 0.",
"0.8 J C J [ <.6.7.5.<.@.` Z n 0 q 0 z z ; 0.",
"0.6 J C  .5.9.9.>.] N n v q q 0 0 z g g & 0.",
"0.2 M C $.9.9.4.^ q q q 0 0 0 0 g g k f @ 0.",
"0.# r M ] 2.8.6.$.` Y Z V V B b c k k p . 0.",
"0.0.5 y M ` $.2.4.4.2.:.;.;.,.=.T l h = 0.0.",
"0.0.# 9 n q M I ` X.#.*.,.5.6.,.R A p . 0.0.",
"0.0.0.> 9 x 0 x G Y ' } | { R D A a + 0.0.0.",
"0.0.0.0.> 7 0 x m G H F S k A d a + 0.0.0.0.",
"0.0.0.0.0.O < 4 z j f k h h s - . 0.0.0.0.0.",
"0.0.0.0.0.0.0.O & ; : : ; $ + 0.0.0.0.0.0.0.",
"0.0.0.0.0.0.0.0.0.0.    0.0.0.0.0.0.0.0.0.0."
};
