/* XPM */
static char *git_1[] = {
/* columns rows colors chars-per-pixel */
"22 21 44 1 ",
"  c #EB595A",
". c #EB595B",
"X c #EB5A5B",
"o c #EB5B5B",
"O c #EB5B5C",
"+ c #EB5B5D",
"@ c #EB5D5C",
"# c #EB5D5D",
"$ c #EB5C5E",
"% c #EC5D5D",
"& c #EC5E5D",
"* c #EC5F5E",
"= c #EC605F",
"- c #EC615F",
"; c #EB5C60",
": c #EB5E60",
"> c #EB5E61",
", c #EB5F61",
"< c #EB5E62",
"1 c #EB5F63",
"2 c #EB6063",
"3 c #EC6160",
"4 c #EC6161",
"5 c #EC6261",
"6 c #EC6361",
"7 c #EC6163",
"8 c #EC6262",
"9 c #EC6362",
"0 c #EC6461",
"q c #EC6462",
"w c #ED6562",
"e c #EC6563",
"r c #EC6164",
"t c #EC6264",
"y c #EC6265",
"u c #EC6266",
"i c #EC6366",
"p c #EC6267",
"a c #EC6367",
"s c #ED6965",
"d c #EC666B",
"f c #EC6869",
"g c #ED6A6C",
"h c None",
/* pixels */
"hhhhhhhhhhhhhhhhhhhhhh",
"hhhhhhhhhh=7hhhhhhhhhh",
"hhhhhhhhh=  2hhhhhhhhh",
"hhhhhhhhsX   2hhhhhhhh",
"hhhhhhhfhe4&  7hhhhhhh",
"hhhhhh=Xdhhh%  rhhhhhh",
"hhhhh=  phhh=   rhhhhh",
"hhhh=   :hhhwX  .rhhhh",
"hhh-     <hgh0X  .rhhh",
"hh3      ;h*uhhh* .yhh",
"hho      ;h%+hhhhX $hh",
"hhq      ;h&XhhhhX.ihh",
"hhhq     1h* ,hh*.yhhh",
"hhhhq   >hhhO XX.yhhhh",
"hhhhh9  ahhh=   yhhhhh",
"hhhhhh9 2hhh@  thhhhhh",
"hhhhhhh6X:8#  rhhhhhhh",
"hhhhhhhh6    rhhhhhhhh",
"hhhhhhhhh6  rhhhhhhhhh",
"hhhhhhhhhh5thhhhhhhhhh",
"hhhhhhhhhhhhhhhhhhhhhh"
};
