/* XPM */
static char *haskell_1[] = {
/* columns rows colors chars-per-pixel */
"22 15 53 1 ",
"  c #8B6B86",
". c #8D6C86",
"X c #8C6C87",
"o c #8D6D87",
"O c #836A89",
"+ c #876D8D",
"@ c #8B6C88",
"# c #8E6E89",
"$ c #8F6E8A",
"% c #886D8E",
"& c #896E8F",
"* c #8C6F8F",
"= c #906E89",
"- c #92708D",
"; c #92718E",
": c #93718F",
"> c #93728F",
", c #896E90",
"< c #8A6F90",
"1 c #8D7092",
"2 c #8D7193",
"3 c #8E7193",
"4 c #917191",
"5 c #917291",
"6 c #947290",
"7 c #947391",
"8 c #957391",
"9 c #957392",
"0 c #907294",
"q c #917294",
"w c #917394",
"e c #927395",
"r c #937495",
"t c #937496",
"y c #957495",
"u c #967494",
"i c #977594",
"p c #977595",
"a c #947496",
"s c #957496",
"d c #957597",
"f c #977596",
"g c #967597",
"h c #967697",
"j c #987697",
"k c #977698",
"l c #987698",
"z c #997698",
"x c #987798",
"c c #987699",
"v c #987799",
"b c #997799",
"n c None",
/* pixels */
"nnnnnnnnnnnnnnnnnnnnnn",
"nn,vb$nkb:nnnnnnnnnnnn",
"nnnwbfn1bj.nnnnnnnnnnn",
"nnnngb7ntbunnnnnnnnnnn",
"nnnn<vb#Okb:nnnnnnnnnn",
"nnnnnqbfn2bl %vbbbb;nn",
"nnnnnndb8ntbin*5445@nn",
"nnnnnnabin0bb>nnnnnnnn",
"nnnnn3bzo+cbblX+kxb;nn",
"nnnnnkb>ndbysbpnebb;nn",
"nnnntbpn0bjnnkb6nnnnnn",
"nnn3blX&vb-nn3bl=nnnnn",
"nnnhx:ndb9nnnnrbunnnnn",
"nnnnnnnnnnnnnnnnnnnnnn",
"nnnnnnnnnnnnnnnnnnnnnn"
};
