/* XPM */
static char *html_1[] = {
/* columns rows colors chars-per-pixel */
"21 22 67 1 ",
"  c #D4833D",
". c #D4843D",
"X c #D4843E",
"o c #D4853E",
"O c #D4843F",
"+ c #D4853F",
"@ c #D5853F",
"# c #D48540",
"$ c #D58540",
"% c #D48541",
"& c #D58640",
"* c #D48641",
"= c #D58641",
"- c #D58741",
"; c #D48642",
": c #D58742",
"> c #D58743",
", c #D58744",
"< c #D58745",
"1 c #D68842",
"2 c #D68843",
"3 c #D68943",
"4 c #D58844",
"5 c #D58845",
"6 c #D68844",
"7 c #D68944",
"8 c #D68945",
"9 c #D78A45",
"0 c #D58846",
"q c #D58946",
"w c #D68947",
"e c #D68A46",
"r c #D68A47",
"t c #D78B47",
"y c #D78C46",
"u c #D88C47",
"i c #D58948",
"p c #D68A49",
"a c #D68B49",
"s c #D58A4A",
"d c #D58B4B",
"f c #D78C4A",
"g c #D78D4B",
"h c #D68B4C",
"j c #D68B4D",
"k c #D78D4C",
"l c #D78D4D",
"z c #D78E4D",
"x c #D88D48",
"c c #D98F4A",
"v c #D88E4B",
"b c #D9904D",
"n c #DA914C",
"m c #DA924D",
"M c #DA924E",
"N c #DA934E",
"B c #DB934E",
"V c #DB944F",
"C c #D68D50",
"Z c #D78E50",
"A c #D68F54",
"S c #D78F55",
"D c #D79057",
"F c #D79157",
"G c #DB9655",
"H c #D7925B",
"J c None",
/* pixels */
"JJJJJJJJJJJJJJJJJJJJJ",
"Jm+OOOOOOOOOOOOOOOOSJ",
"JBoXXXXXXXXXXXXXXXOFJ",
"JJ@XXXXXXXXXXXXXXX+JJ",
"JJ&X<kfffffffffg2X#JJ",
"JJ-.dJJJJJJJJJJJu.;JJ",
"JJ1 iJJJJJJJJJJJ9.,JJ",
"JJ3 0JJM::::::::+.0JJ",
"JJ9 ,JJN=======&X.iJJ",
"JJy.;JJJJJJJJJJG&.sJJ",
"JJxX%JJJJJJJJJJJ&.jJJ",
"JJcXOi544444wJJJ@XCJJ",
"JJnXXpzv$XXX;JJV+XAJJ",
"JJB+XSJJ1XX.,JJnXODJJ",
"JJJ@XCJJb8>qZJJcX+HJJ",
"JJJ&.hJJJJJJJJJxX#JJJ",
"JJJ-X*pJJJJJJJt=X;JJJ",
"JJJ1XXXO=5r6=+XXX,JJJ",
"JJJ7XXXXXXXXXXXXX0JJJ",
"JJJJt2&OXXXXXO*5aJJJJ",
"JJJJJJJJe:=>wlJJJJJJJ",
"JJJJJJJJJJJJJJJJJJJJJ"
};
