/* XPM */
static char *image[] = {
/* columns rows colors chars-per-pixel */
"22 22 15 1 ",
"  c #636A78",
". c #646B79",
"X c #656C79",
"o c #646C7A",
"O c #656C7A",
"+ c #666D7A",
"@ c #686F7D",
"# c #6E7582",
"$ c #6F7582",
"% c gray96",
"& c #F6F6F6",
"* c gray97",
"= c #F9F9F9",
"- c gray98",
"; c None",
/* pixels */
";;;;;;;;;;;;;;;;;;;;;;",
";;;;;;;;;;;;;;;;;;;;;;",
";;;;;;;;;;;;;;;;;;;;;;",
";%&*----------------=;",
";-$@@@@@@@@O        =;",
";-O                .=;",
";-X                 =;",
";-o                 =;",
";-o                .=;",
";-.                .=;",
";-.                .=;",
";-.                .=;",
";=.                o=;",
";=                 o=;",
";=                 X=;",
";=.                X-;",
";=.                O-;",
";=.                O-;",
";=         +@@@@@@@#-;",
";=----------------*&%;",
";;;;;;;;;;;;;;;;;;;;;;",
";;;;;;;;;;;;;;;;;;;;;;"
};
