/* XPM */
static char *markdown[] = {
/* columns rows colors chars-per-pixel */
"22 22 43 1 ",
"  c #1C6E4A",
". c #0F7949",
"X c #147649",
"o c #267A52",
"O c #1B8957",
"+ c #1C8958",
"@ c #139057",
"# c #1E945E",
"$ c #1F965F",
"% c #13985C",
"& c #13995C",
"* c #139C5E",
"= c #149C5E",
"- c #258156",
"; c #1B9961",
": c #2C9361",
"> c #17B46D",
", c #16B66E",
"< c #17B76E",
"1 c #17BB71",
"2 c #17BC71",
"3 c #21A569",
"4 c #26AA6F",
"5 c #23B975",
"6 c #23BB76",
"7 c #19C275",
"8 c #19C375",
"9 c #19C778",
"0 c #1FC67B",
"q c #1ACB7A",
"w c #1AD17E",
"e c #1AD27F",
"r c #1BD27F",
"t c #1BD37F",
"y c #1CD27F",
"u c #23C97D",
"i c #21CA7E",
"p c #20CB7E",
"a c #1CD380",
"s c #1ED280",
"d c #1BD480",
"f c #21D080",
"g c None",
/* pixels */
"gggggggggggggggggggggg",
"gggggggggggggggggggggg",
"gggggggggggggggggggggg",
"gggggggggggggggggggggg",
"g+&&%%&&&%&&&&&&&&&&Og",
"#dddddddddddddddddddd$",
"=dtrrrddderrtdewrwddd*",
"=d%ggg6dpggg.d2gggddd*",
"=d%ggggfgggg.d1gggddd*",
"=d%ggggggggg.d1gggddd*",
"=d%ggggggggg.d1gggddd*",
"=d%gggggggggXgggggggd*",
"=d%ggg-ggggg.5ggggg0d*",
"=d%gggyoiggg.d:ggg4dd*",
"=d%gggdddggg.dagg ddd*",
"=dq>>7ddd8>>9ddugsddd*",
";dddddddddddddddddddd@",
"g3,,,,,,<<<<<<<<<<<<=g",
"gggggggggggggggggggggg",
"gggggggggggggggggggggg",
"gggggggggggggggggggggg",
"gggggggggggggggggggggg"
};
