/* XPM */
static char *pdf[] = {
/* columns rows colors chars-per-pixel */
"22 22 57 1 ",
"  c #8B0A07",
". c #8B0B07",
"X c #8C0A07",
"o c #8B0C07",
"O c #F35450",
"+ c #F35551",
"@ c #F35753",
"# c #F35854",
"$ c #F35A56",
"% c #F45B58",
"& c #F45D5A",
"* c #F45F5B",
"= c #F45F5C",
"- c #F4605C",
"; c #F4615E",
": c #F4625E",
"> c #F5726F",
", c #F67875",
"< c #F57A77",
"1 c #F67F7C",
"2 c #F89593",
"3 c #F9A19F",
"4 c #F9ACAA",
"5 c #F9B2B0",
"6 c #FAB4B2",
"7 c #FAB5B3",
"8 c #FABCBB",
"9 c #FBC2C1",
"0 c #FBC3C1",
"q c #FBC6C5",
"w c #FBCAC9",
"e c #FBCBC9",
"r c #FBCCCA",
"t c #FCD0D0",
"y c #FCD1D0",
"u c #FCD4D3",
"i c #FCD5D5",
"p c #FCD6D5",
"a c #FCD9D8",
"s c #FCDCDC",
"d c #FCDDDC",
"f c #FDE2E2",
"g c #FDE5E4",
"h c #FDE7E7",
"j c #FEEAEA",
"k c #FEEBEA",
"l c #FEECEC",
"z c #FEEEED",
"x c #FEEFEE",
"c c #FEF0F0",
"v c #FEF1F0",
"b c #FEF3F3",
"n c #FEF4F4",
"m c #FEF5F5",
"M c #FEF7F7",
"N c #FEF8F8",
"B c None",
/* pixels */
"BBX................oBB",
"BB.OOOOOOOOOOOOOOOO.BB",
"BB.OOOOOOOOOOOOOOOO.BB",
"BB.OOOOOOOOOOOOOOOO.BB",
"BB.OOOOOOO#OOOOOOOO.BB",
"BB.OOOOOO=vrOOOOOOO.BB",
"BB.OOOOOO>z7OOOOOOO.BB",
"BB.OOOOOO:n8OOOOOOO.BB",
"BB.OOOOOOOlqOOOOOOO.BB",
"BB.OOOOOOOp0OOOOOOO.BB",
"BB.OOOOOO&Nc*OOOOOO.BB",
"BB.OOOOOO5uti+OOOOO.BB",
"BB.OOOOO$c<%fa366<O.BB",
"BB.OOOOO5h9jxsMmdk@.BB",
"BB.OOOO1by2&OO;4a9O.BB",
"BB.OO#wMeOOOOOOOOOO.BB",
"BB.OOyvz-OOOOOOOOOO.BB",
"BB.OOgl,OOOOOOOOOOO.BB",
"BB.OOOOOOOOOOOOOOOO.BB",
"BB.OOOOOOOOOOOOOOOO.BB",
"BB.OOOOOOOOOOOOOOOO.BB",
"BB ................XBB"
};
