/* XPM */
static char *python[] = {
/* columns rows colors chars-per-pixel */
"22 22 217 2 ",
"   c #132A3F",
".  c #53481A",
"X  c #675217",
"o  c #65581D",
"O  c #6F5F21",
"+  c #776520",
"@  c #786928",
"#  c #122B43",
"$  c #173147",
"%  c #1A3851",
"&  c #1F3B50",
"*  c #1B3A54",
"=  c #1B3C56",
"-  c #1C3D57",
";  c #1A3A58",
":  c #1E3E58",
">  c #213847",
",  c #233B4C",
"<  c #233C4D",
"1  c #233C4F",
"2  c #1E405C",
"3  c #1F415C",
"4  c #214564",
"5  c #224869",
"6  c #234A6B",
"7  c #234C6E",
"8  c #234C70",
"9  c #254E70",
"0  c #254F72",
"q  c #255074",
"w  c #275175",
"e  c #265176",
"r  c #28547A",
"t  c #28567C",
"y  c #2A577C",
"u  c #2A597E",
"i  c #2B597F",
"p  c #2C597E",
"a  c #836B21",
"s  c #836F26",
"d  c #8B7021",
"f  c #8C7122",
"g  c #8F7423",
"h  c #8E7627",
"j  c #83732B",
"k  c #847129",
"l  c #84722A",
"z  c #84732A",
"x  c #917826",
"c  c #987821",
"v  c #A07F25",
"b  c #9E852A",
"n  c #A58426",
"m  c #A78527",
"M  c #A88525",
"N  c #AE8A27",
"B  c #A28529",
"V  c #A88C2B",
"C  c #B18E2A",
"Z  c #B7922A",
"A  c #B8932B",
"S  c #BA982F",
"D  c #B59932",
"F  c #BF9C30",
"G  c #BF9D31",
"H  c #BF9E32",
"J  c #BEA537",
"K  c #C1992C",
"L  c #C29E2F",
"P  c #C3A234",
"I  c #CAA130",
"U  c #C8A230",
"Y  c #CEAB36",
"T  c #C4A938",
"R  c #C6AA39",
"E  c #CBAB39",
"W  c #CBAC3A",
"Q  c #CAAC3B",
"!  c #CFAD39",
"~  c #D7AA31",
"^  c #D5AE35",
"/  c #DDB133",
"(  c #DAB136",
")  c #DEB83A",
"_  c #DFBA3C",
"`  c #EBBC35",
"'  c #E4B938",
"]  c #E3BE3D",
"[  c #E3BF3E",
"{  c #E6BE3D",
"}  c #EFC039",
"|  c #EDC03A",
" . c #EBC13C",
".. c #E8C13E",
"X. c #F1C23A",
"o. c #F7C539",
"O. c #F0C33C",
"+. c #FECA3A",
"@. c #FDCB3C",
"#. c #FDCC3D",
"$. c #FECC3C",
"%. c #FFCD3C",
"&. c #FFCE3C",
"*. c #FFCE3D",
"=. c #FCCD3E",
"-. c #FFCE3E",
";. c #FFCF3F",
":. c #FFD03F",
">. c #DFC245",
",. c #EFC842",
"<. c #F3CA40",
"1. c #FCCF40",
"2. c #FFD040",
"3. c #FFD141",
"4. c #FFD241",
"5. c #FCD042",
"6. c #FDD142",
"7. c #FCD143",
"8. c #FED242",
"9. c #FFD342",
"0. c #FFD243",
"q. c #FFD343",
"w. c #FFD443",
"e. c #FCD345",
"r. c #FDD345",
"t. c #FFD444",
"y. c #FFD544",
"u. c #FFD445",
"i. c #FED545",
"p. c #FDD446",
"a. c #FCD447",
"s. c #FFD646",
"d. c #FFD647",
"f. c #FED747",
"g. c #FFD747",
"h. c #FFD947",
"j. c #FCD548",
"k. c #FCD649",
"l. c #FFD748",
"z. c #FED749",
"x. c #FFD849",
"c. c #FCD84B",
"v. c #FED94A",
"b. c #FFD94B",
"n. c #FEDA4B",
"m. c #FFDA4B",
"M. c #FBD94C",
"N. c #FFDB4C",
"B. c #FEDB4D",
"V. c #2A5980",
"C. c #2A5A82",
"Z. c #2A5A83",
"A. c #2C5A80",
"S. c #2C5B81",
"D. c #2D5B82",
"F. c #2B5C84",
"G. c #2A5C86",
"H. c #2D5E86",
"J. c #2F5E86",
"K. c #2B5F89",
"L. c #2B618B",
"P. c #2D628C",
"I. c #2F638F",
"U. c #30638E",
"Y. c #2F6490",
"T. c #2E6592",
"R. c #2F6693",
"E. c #2F6795",
"W. c #306590",
"Q. c #306693",
"!. c #326792",
"~. c #316794",
"^. c #316795",
"/. c #336995",
"(. c #326998",
"). c #366B98",
"_. c #356C98",
"`. c #366D9A",
"'. c #366E9B",
"]. c #326C9C",
"[. c #336E9F",
"{. c #366D9C",
"}. c #366E9C",
"|. c #376F9D",
" X c #356F9F",
".X c #366E9E",
"XX c #376F9E",
"oX c #37709F",
"OX c #3670A0",
"+X c #3770A0",
"@X c #3771A0",
"#X c #3771A1",
"$X c #3671A2",
"%X c #3771A2",
"&X c #3772A3",
"*X c #3572A4",
"=X c #3572A5",
"-X c #3772A4",
";X c #3773A4",
":X c #3773A5",
">X c #3773A6",
",X c #3773A7",
"<X c #3774A5",
"1X c #3574A7",
"2X c #3774A6",
"3X c #3774A7",
"4X c #3871A1",
"5X c #3872A3",
"6X c #3575A9",
"7X c #3774A8",
"8X c #3775A8",
"9X c #3775A9",
"0X c #3675AA",
"qX c #3776AA",
"wX c #3776AB",
"eX c #3777AD",
"rX c None",
/* pixels */
"rXrXrXrXrXrXrXrXrXrXrXrXrXrXrXrXrXrXrXrXrXrX",
"rXrXrXrXrXrXrX$ q ].6X=XQ.9 rXrXrXrXrXrXrXrX",
"rXrXrXrXrXrX5 0 6 [.qX9X3X<X!.3 rXrXrXrXrXrX",
"rXrXrXrXrXrXZ.7 rXR.7X7X:X&X5XD.rXrXrXrXrXrX",
"rXrXrXrXrXrXt e 2 P.(.$X&X%X4XA.rXrXrXrXrXrX",
"rXrXrXrXrXrXrX= - % : W.#X+XoXp rXrXrXrXrXrX",
"rXrXrXG.L.K.F.C.V.u i /.oXXX|.y . D ! h rXrX",
"rXrXT.0XeXqX8X,X:X&X#X@XXX}.'.r O [ h.{ rXrX",
"rX7 eXeXwX9X3X:X;X%X+XXX}.`.).e + ] y.9.S rX",
"rXE.eXwX9X3X;X$XOX.X{.`._.).J.# V <.q.3.O.rX",
"rX1XwX9X3X-XI.4 & 1 1 < , > rXrXY w.3.;.*.rX",
"rX*X9X3X2XH.rXrX@ j z l k s b ) 6.3.;.*.$.rX",
"rXY.3X>X X8 o >.B.c.k.j.a.e.7.8.3.;.*.%.` rX",
"rX6 :X;X^.; J M.N.b.x.l.s.t.q.3.:.-.&.+.N rX",
"rXrXU.5X~.* T n.m.x.l.r.7.5.1.=.#.@.o.~ rXrX",
"rXrXrXS.w   R v.x.d.,.P H G F L U I K rXrXrX",
"rXrXrXrXrXrXQ z.g.i...x a f d rXrXrXrXrXrXrX",
"rXrXrXrXrXrXW f.s.t.5. .( g C A rXrXrXrXrXrX",
"rXrXrXrXrXrXE p.u.0.4.2.' rXv Z rXrXrXrXrXrX",
"rXrXrXrXrXrXrX_ q.3.2.-.} m M c rXrXrXrXrXrX",
"rXrXrXrXrXrXrXrXB ^ | X./ n X rXrXrXrXrXrXrX",
"rXrXrXrXrXrXrXrXrXrXrXrXrXrXrXrXrXrXrXrXrXrX"
};
