/* XPM */
static char *rust[] = {
/* columns rows colors chars-per-pixel */
"22 22 55 1 ",
"  c #AC4A04",
". c #AD4A04",
"X c #AF4B04",
"o c #B04C04",
"O c #B24D04",
"+ c #B34D04",
"@ c #B44D04",
"# c #B54E04",
"$ c #B84F04",
"% c #BA5004",
"& c #BC5104",
"* c #BD5104",
"= c #BD5204",
"- c #BE5204",
"; c #BF5204",
": c #C05304",
"> c #C35404",
", c #C45504",
"< c #C55504",
"1 c #C65504",
"2 c #C75504",
"3 c #C75604",
"4 c #C85604",
"5 c #C95605",
"6 c #C95705",
"7 c #CA5705",
"8 c #CB5705",
"9 c #CC5805",
"0 c #CD5805",
"q c #CE5905",
"w c #CF5905",
"e c #D05905",
"r c #D05A05",
"t c #D15A05",
"y c #D25A05",
"u c #D25B05",
"i c #D35B05",
"p c #D45B05",
"a c #D55C05",
"s c #D65C05",
"d c #D75C05",
"f c #D75D05",
"g c #D85D05",
"h c #D95D05",
"j c #D95E05",
"k c #DA5E05",
"l c #DB5E05",
"z c #DC5F05",
"x c #DD5F05",
"c c #DE5F05",
"v c #DE6005",
"b c #DF6005",
"n c #E06005",
"m c #E06105",
"M c None",
/* pixels */
"MMMMMMMMMMMMMMMMMMMMMM",
"MMMMMMM&1p0ep1&MMMMMMM",
"MMMMM68vlf.<gkv86MMMMM",
"MMMM3xh3MM*XMM3jx3MMMM",
"MMM4bpMMMMMMMMMMpb4MMM",
"MM6xx7MMMMMMMMMMMax6MM",
"MMrmbbbbbbnbbxp#MMkrMM",
"M-feagbbvt0ekbnfMM8l-M",
"M41M#MbbzMMMMkbxMOM14M",
"MpsXMMbbx0MM<zbwMM@fpM",
"MpxMMMbbbbvvbnpMMMMxpM",
"MpzMMMbbx2-,gbx*MM:xpM",
"MphMMMbbzMMM=vnpMMsniM",
"M3xgklbbc9>MMlbcuivv3M",
"M*vbnbbbbnlMMibbnnbv*M",
"MMwny138005MMM643ynwMM",
"MM6xg*$MMMMMMMM+%gx6MM",
"MMM4b4MoMMMMMM M>b4MMM",
"MMMM4ieq;MMMM-wwp4MMMM",
"MMMMM79bxkfdkxb97MMMMM",
"MMMMMMM*1pssp1*MMMMMMM",
"MMMMMMMMMMMMMMMMMMMMMM"
};
