/* XPM */
static char *shell[] = {
/* columns rows colors chars-per-pixel */
"22 22 4 1 ",
"  c #315031",
". c #33AA33",
"X c white",
"o c None",
/* pixels */
"oooooooooooooooooooooo",
"ooo                ooo",
"oo  ..............  oo",
"o  ................  o",
"o .................. o",
"o .................. o",
"o ..XX.............. o",
"o ..XXX............. o",
"o ...XXX............ o",
"o ....XXX........... o",
"o .....XXX.......... o",
"o .....XXX.......... o",
"o ....XXX........... o",
"o ...XXX............ o",
"o ..XXX...XXXXXXXXX. o",
"o ..XX....XXXXXXXXX. o",
"o .................. o",
"o .................. o",
"o  ................  o",
"oo  ..............  oo",
"ooo                ooo",
"oooooooooooooooooooooo"
};
