/* XPM */
static char *imenu_open[] = {
/* columns rows colors chars-per-pixel */
"22 22 11 1 ",
"  c #004200",
". c #0B490B",
"X c #296329",
"o c #316331",
"O c #396B39",
"+ c #427342",
"@ c #4A734A",
"# c #4A7B4A",
"$ c #528452",
"% c #5A845A",
"& c None",
/* pixels */
"&&&&&&&&&&&&&&&&&&&&&&",
"&&&&&&&&&&&&&&&&&&&&&&",
"&&&&&&&&&&&&&&&&&&&&&&",
"&&&&&&&&&&&&&&&&&&&&&&",
"&&&&&&&&&&&&&&&&&&&&&&",
"&&&&&&&&&&&&&&&&&&&&&&",
"&&&&&&&&&&&&&&&&&&&&&&",
"&&&&&&&&&&&&&&&&&&&&&&",
"&&&&&&&&&&&&&&&&&&&&&&",
"&&&&&&&&&&&&&&&&&&&&&&",
"&&&&&&&&             &",
"&&&&&&&&& %$#@+OOoX &&",
"&&&&&&&&&  %$#@+OO  &&",
"&&&&&&&&&&  %$#@+  &&&",
"&&&&&&&&&&&  %$#  &&&&",
"&&&&&&&&&&&&  %  &&&&&",
"&&&&&&&&&&&&&   &&&&&&",
"&&&&&&&&&&&&&&.&&&&&&&",
"&&&&&&&&&&&&&&&&&&&&&&",
"&&&&&&&&&&&&&&&&&&&&&&",
"&&&&&&&&&&&&&&&&&&&&&&",
"&&&&&&&&&&&&&&&&&&&&&&"
};
