/* XPM */
static char *imenu_leaf[] = {
/* columns rows colors chars-per-pixel */
"22 22 10 1 ",
"  c #710015",
". c #89051E",
"X c #970E28",
"o c #980E28",
"O c #A01C34",
"+ c #A01C35",
"@ c #B82C46",
"# c #CB3C57",
"$ c #CC3C57",
"% c None",
/* pixels */
"%%%%%%%%%%%%%%%%%%%%%%",
"%%%%%%%%%%%%%%%%%%%%%%",
"%%%%%%%%%%%%%%%%%%%%%%",
"%%%%%%%%%%%%%%%%%%%%%%",
"%%%%%%%%%%%%%%%%%%%%%%",
"%%%%%%%%%%%%%%%%%%%%%%",
"%%%%%%%%%%%     %%%%%%",
"%%%%%%%%%% ...oo %%%%%",
"%%%%%%%%% ...oo++ %%%%",
"%%%%%%%% ...oo++@@ %%%",
"%%%%%%%% ..oo++@@$ %%%",
"%%%%%%%% .oo++@@$$ %%%",
"%%%%%%%%% X++@@$$ %%%%",
"%%%%%%%%%% O@@#$ %%%%%",
"%%%%%%%%%%%     %%%%%%",
"%%%%%%%%%%%%%%%%%%%%%%",
"%%%%%%%%%%%%%%%%%%%%%%",
"%%%%%%%%%%%%%%%%%%%%%%",
"%%%%%%%%%%%%%%%%%%%%%%",
"%%%%%%%%%%%%%%%%%%%%%%",
"%%%%%%%%%%%%%%%%%%%%%%",
"%%%%%%%%%%%%%%%%%%%%%%"
};
