/* XPM */
static char *txt[] = {
/* columns rows colors chars-per-pixel */
"22 22 22 1 ",
"  c #B4BFD8",
". c #B6C1D9",
"X c #B9C3DA",
"o c #BBC5DC",
"O c #BCC6DC",
"+ c #BEC8DD",
"@ c #C1CADE",
"# c #C3CCDF",
"$ c #C3CCE0",
"% c #C8D0E2",
"& c #C9D1E2",
"* c #CAD1E2",
"= c #CCD3E3",
"- c #D2D8E7",
"; c #D5DBE8",
": c #E5E8F0",
"> c #E8EBF1",
", c #F7F8F9",
"< c #F8F8F9",
"1 c #F9F9F9",
"2 c gray98",
"3 c None",
/* pixels */
"3333333333333333333333",
"3332222222222222222333",
"3332222222222222222333",
"33322  = O$ *:22222333",
"3332222222222222222333",
"33322   =X@O=X%o222333",
"3332222222222222222333",
"33322.-O.....222222333",
"33322,1<,,,,,222222333",
"3332222222222222222333",
"33322   &    &  >22333",
"3332222222222222222333",
"33322  = +# &= ;222333",
"3332222222222222222333",
"3332222222222222222333",
"33322   &    &  >22333",
"3332222222222222222333",
"33322   O#.%  <2222333",
"3332222222222222222333",
"3332222222222222222333",
"3332222222222222222333",
"3333333333333333333333"
};
