/* XPM */
static char *typescript[] = {
/* columns rows colors chars-per-pixel */
"22 22 109 2 ",
"   c #0077CC",
".  c #0078CC",
"X  c #0079CC",
"o  c #0079CD",
"O  c #007ACD",
"+  c #017ACD",
"@  c #017BCD",
"#  c #027BCD",
"$  c #037CCE",
"%  c #047CCE",
"&  c #057CCE",
"*  c #057DCE",
"=  c #067DCE",
"-  c #077ECE",
";  c #087ECF",
":  c #097ECF",
">  c #097FCF",
",  c #0A7FCF",
"<  c #0B80CF",
"1  c #0E81D0",
"2  c #0F82D0",
"3  c #1082D0",
"4  c #1384D1",
"5  c #1585D1",
"6  c #1987D2",
"7  c #1D89D3",
"8  c #1E89D3",
"9  c #228CD3",
"0  c #238CD4",
"q  c #248DD4",
"w  c #258DD4",
"e  c #268ED4",
"r  c #2F92D6",
"t  c #3294D6",
"y  c #3294D7",
"u  c #3394D7",
"i  c #3696D7",
"p  c #3897D8",
"a  c #3B98D8",
"s  c #3C99D9",
"d  c #3D9AD9",
"f  c #3E9AD9",
"g  c #429CDA",
"h  c #439DDA",
"j  c #449DDA",
"k  c #49A0DB",
"l  c #4EA2DC",
"z  c #4FA3DC",
"x  c #53A5DD",
"c  c #58A8DE",
"v  c #5DAADF",
"b  c #5DABDF",
"n  c #73B6E3",
"m  c #7EBCE5",
"M  c #7EBCE6",
"N  c #7FBCE6",
"B  c #81BDE6",
"V  c #86C0E7",
"C  c #8AC2E8",
"Z  c #8DC3E8",
"A  c #8EC4E8",
"S  c #92C6E9",
"D  c #94C7EA",
"F  c #96C8EA",
"G  c #99C9EB",
"H  c #9CCBEB",
"J  c #9FCDEC",
"K  c #A1CEEC",
"L  c #A2CEED",
"P  c #A4CFED",
"I  c #A4D0ED",
"U  c #AED5EF",
"Y  c #AFD5EF",
"T  c #B1D6EF",
"R  c #B1D6F0",
"E  c #B2D7F0",
"W  c #B3D8F0",
"Q  c #B4D8F0",
"!  c #B8DAF1",
"~  c #BCDCF2",
"^  c #C4E0F3",
"/  c #C6E1F4",
"(  c #C8E2F4",
")  c #CEE5F5",
"_  c #CFE6F5",
"`  c #D1E7F6",
"'  c #D2E8F6",
"]  c #D3E8F6",
"[  c #D5E9F7",
"{  c #D8EBF7",
"}  c #DCEDF8",
"|  c #DEEDF8",
" . c #E2F0F9",
".. c #E6F2FA",
"X. c #E9F3FA",
"o. c #E9F4FB",
"O. c #EAF4FB",
"+. c #EBF5FB",
"@. c #ECF5FB",
"#. c #EFF6FC",
"$. c #EFF7FC",
"%. c #F2F8FC",
"&. c #F3F9FC",
"*. c #F3F9FD",
"=. c #F5FAFD",
"-. c #FAFCFE",
";. c #FBFDFE",
":. c white",
">. c None",
/* pixels */
">.>.>.>.>.>.>.>.>.>.>.>.>.>.>.>.>.>.>.>.>.>.",
">.O O O O O O O O O O O O O O O O O O O O >.",
">.O O $ $ $ $ $ $ $ $ $ $ @ O O O O O O O >.",
">.o 6 J E R R Y U R R R R g . O O O O O O >.",
">.o 8 ~ ] ` ' =.:.{ ` ` ` l . O O O O O O >.",
">.O # 2 3 3 5 ! +.y 1 3 3 $ . o o . . O O >.",
">.O O O o o % W O.0 . o # u n D F N s + O >.",
">.O O O O O & Q O.q . - m o.| ^ ( X.T = O >.",
">.O O O O O & Q O.q   x =.S 7 > < e h % O >.",
">.O O O O O & Q O.q . F X.9 . O O o X O O >.",
">.O O O O O & Q O.q . Z *.d   O O O O O O >.",
">.O O O O O & Q O.q   d @.) j % . O O O O >.",
">.O O O O O & Q O.q o + c } %.I a # o O O >.",
">.O O O O O & Q O.q o O o w A X.#.V 2 o O >.",
">.O O O O O & Q O.q o O O o O r L -.D = O >.",
">.O O O O O & Q O.q o O O O O . : K %.i . >.",
">.O O O O O & Q O.q o o o O O O   b ;.z . >.",
">.O O O O O & T ..q O f 9 + . . ; G $.t . >.",
">.O O O O O @ p k < O J  .P M B ! &.C * O >.",
">.O O O O O O . . O O f H / [ _ U v , o O >.",
">.O O O O O O O O O O X O < 4 2 % . O O O >.",
">.>.>.>.>.>.>.>.>.>.>.>.>.>.>.>.>.>.>.>.>.>."
};
